<svg width="130" height="104" viewBox="0 0 130 104" fill="none" xmlns="http://www.w3.org/2000/svg">
<g filter="url(#filter0_i_1_3299)">
<path fill-rule="evenodd" clip-rule="evenodd" d="M83.4784 26.5386L46.915 60.4768C47.4366 61.0044 47.9378 61.5112 48.5412 61.9974L62.9722 74.3066C64.0602 75.2313 65.6479 75.2313 66.7359 74.3066C69.3337 72.0723 74.4168 67.7279 80.4612 62.5766C92.0695 52.6569 93.0922 38.103 83.4784 26.5386Z" fill="#2DD7AE"/>
</g>
<path fill-rule="evenodd" clip-rule="evenodd" d="M46.6293 26.5414C37.5533 36.6244 37.8841 51.2473 47.0841 60.4615L65.2465 43.791C76.3589 33.5839 77.2169 15.3415 66.2492 5C66.2492 5 55.7053 16.4584 46.6293 26.5414Z" fill="#2DD7AE"/>
<path d="M0.304688 103.781V88.4384H2.8314V103.781H0.304688ZM2.04043 103.781V101.479H10.6532V103.781H2.04043ZM2.04043 97.0521V94.8384H9.9062V97.0521H2.04043ZM2.04043 90.7397V88.4384H10.5434V90.7397H2.04043Z" fill="white"/>
<path d="M17.6189 104C16.5789 104 15.6341 103.759 14.7845 103.277C13.9496 102.795 13.2905 102.137 12.8071 101.304C12.3237 100.471 12.0821 99.5434 12.0821 98.5205C12.0821 97.4831 12.3237 96.5553 12.8071 95.737C13.2905 94.9041 13.9496 94.2466 14.7845 93.7644C15.6341 93.2822 16.5789 93.0411 17.6189 93.0411C18.4391 93.0411 19.2008 93.2018 19.9039 93.5233C20.6216 93.8301 21.2295 94.2758 21.7275 94.8603L20.1456 96.4603C19.838 96.095 19.4645 95.8247 19.025 95.6493C18.6003 95.4594 18.1315 95.3644 17.6189 95.3644C17.0183 95.3644 16.4837 95.5032 16.0149 95.7808C15.5609 96.0438 15.202 96.4091 14.9383 96.8767C14.6893 97.3443 14.5648 97.8922 14.5648 98.5205C14.5648 99.1342 14.6893 99.6822 14.9383 100.164C15.202 100.632 15.5609 101.005 16.0149 101.282C16.4837 101.545 17.0183 101.677 17.6189 101.677C18.1315 101.677 18.6003 101.589 19.025 101.414C19.4645 101.224 19.838 100.946 20.1456 100.581L21.7275 102.181C21.2295 102.765 20.6216 103.218 19.9039 103.54C19.2008 103.847 18.4391 104 17.6189 104Z" fill="white"/>
<path d="M28.0891 104C27.0638 104 26.1337 103.759 25.2987 103.277C24.4638 102.78 23.7974 102.115 23.2993 101.282C22.816 100.449 22.5743 99.5215 22.5743 98.4986C22.5743 97.4758 22.816 96.5553 23.2993 95.737C23.7974 94.9187 24.4638 94.2685 25.2987 93.7863C26.1337 93.2895 27.0638 93.0411 28.0891 93.0411C29.1291 93.0411 30.0665 93.2822 30.9015 93.7644C31.7364 94.2466 32.3955 94.9041 32.8789 95.737C33.3769 96.5553 33.6259 97.4758 33.6259 98.4986C33.6259 99.5215 33.3769 100.449 32.8789 101.282C32.3955 102.115 31.7364 102.78 30.9015 103.277C30.0665 103.759 29.1291 104 28.0891 104ZM28.0891 101.677C28.6897 101.677 29.217 101.545 29.6711 101.282C30.1398 101.005 30.4986 100.625 30.7477 100.142C31.0113 99.6603 31.1431 99.1123 31.1431 98.4986C31.1431 97.8849 31.0113 97.3443 30.7477 96.8767C30.484 96.4091 30.1251 96.0438 29.6711 95.7808C29.217 95.5032 28.6897 95.3644 28.0891 95.3644C27.5032 95.3644 26.9759 95.5032 26.5072 95.7808C26.0531 96.0438 25.6942 96.4091 25.4306 96.8767C25.1816 97.3443 25.0571 97.8849 25.0571 98.4986C25.0571 99.1123 25.1816 99.6603 25.4306 100.142C25.6942 100.625 26.0531 101.005 26.5072 101.282C26.9759 101.545 27.5032 101.677 28.0891 101.677Z" fill="white"/>
<path d="M42.0997 103.781V101.589H46.5159C47.2923 101.589 47.8928 101.348 48.3176 100.866C48.7424 100.384 48.9548 99.8283 48.9548 99.2C48.9548 98.7763 48.8596 98.3817 48.6691 98.0164C48.4787 97.6511 48.2004 97.3589 47.8342 97.1397C47.468 96.9205 47.0286 96.811 46.5159 96.811H42.0997V94.6192H46.1424C46.8016 94.6192 47.3289 94.4511 47.7244 94.1151C48.1198 93.779 48.3176 93.2822 48.3176 92.6247C48.3176 91.9671 48.1198 91.4703 47.7244 91.1342C47.3289 90.7982 46.8016 90.6301 46.1424 90.6301H42.0997V88.4384H46.2083C47.2483 88.4384 48.1125 88.6283 48.801 89.0082C49.4894 89.3881 50.0021 89.8776 50.339 90.4767C50.6759 91.0758 50.8443 91.7187 50.8443 92.4055C50.8443 93.2091 50.6173 93.9178 50.1632 94.5315C49.7238 95.1452 49.0719 95.642 48.2077 96.0219L48.4055 95.2329C49.3722 95.6274 50.1266 96.1826 50.6685 96.8986C51.2105 97.6146 51.4815 98.4548 51.4815 99.4192C51.4815 100.208 51.2837 100.932 50.8883 101.589C50.5074 102.247 49.9362 102.78 49.1745 103.189C48.4274 103.584 47.5047 103.781 46.4061 103.781H42.0997ZM40.3639 103.781V88.4384H42.8906V103.781H40.3639Z" fill="white"/>
<path d="M58.1184 104C57.1663 104 56.3021 103.759 55.5258 103.277C54.7641 102.795 54.1562 102.144 53.7021 101.326C53.2627 100.493 53.043 99.5653 53.043 98.5425C53.043 97.505 53.2627 96.5772 53.7021 95.7589C54.1562 94.926 54.7641 94.2685 55.5258 93.7863C56.3021 93.2895 57.1663 93.0411 58.1184 93.0411C58.924 93.0411 59.6344 93.2164 60.2496 93.5671C60.8795 93.9032 61.3775 94.3708 61.7437 94.9699C62.1099 95.5689 62.293 96.2484 62.293 97.0082V100.033C62.293 100.793 62.1099 101.472 61.7437 102.071C61.3921 102.67 60.9014 103.145 60.2716 103.496C59.6418 103.832 58.924 104 58.1184 104ZM58.5139 101.721C59.4074 101.721 60.1251 101.421 60.6671 100.822C61.2237 100.223 61.502 99.4557 61.502 98.5205C61.502 97.8922 61.3775 97.337 61.1285 96.8548C60.8795 96.3726 60.5279 96 60.0739 95.737C59.6344 95.4594 59.1144 95.3205 58.5139 95.3205C57.928 95.3205 57.408 95.4594 56.9539 95.737C56.5145 96 56.1629 96.3726 55.8993 96.8548C55.6503 97.337 55.5258 97.8922 55.5258 98.5205C55.5258 99.1489 55.6503 99.7041 55.8993 100.186C56.1629 100.668 56.5145 101.048 56.9539 101.326C57.408 101.589 57.928 101.721 58.5139 101.721ZM61.3482 103.781V100.953L61.7657 98.389L61.3482 95.8466V93.2603H63.7651V103.781H61.3482Z" fill="white"/>
<path d="M73.6759 103.781V97.7096C73.6759 97.0082 73.4489 96.4311 72.9948 95.9781C72.5553 95.5251 71.9841 95.2986 71.281 95.2986C70.8123 95.2986 70.3948 95.4009 70.0286 95.6055C69.6624 95.81 69.3768 96.095 69.1717 96.4603C68.9667 96.8256 68.8641 97.242 68.8641 97.7096L67.9194 97.1836C67.9194 96.3799 68.0951 95.6712 68.4467 95.0575C68.7982 94.4292 69.2816 93.9397 69.8968 93.589C70.5266 93.2237 71.2297 93.0411 72.0061 93.0411C72.797 93.0411 73.5001 93.2457 74.1153 93.6548C74.7305 94.0493 75.2139 94.568 75.5654 95.211C75.917 95.8393 76.0927 96.4968 76.0927 97.1836V103.781H73.6759ZM66.4473 103.781V93.2603H68.8641V103.781H66.4473Z" fill="white"/>
<path d="M85.25 103.781L80.7898 98.411L85.2281 93.2603H88.1063L83.0089 99.0466L83.1188 97.6658L88.326 103.781H85.25ZM78.5487 103.781V88H80.9656V103.781H78.5487Z" fill="white"/>
<path d="M94.4986 103.781V88.4384H97.0253V103.781H94.4986ZM96.2344 103.781V101.479H104.276V103.781H96.2344Z" fill="white"/>
<path d="M107.102 103.781V88.8767H109.519V103.781H107.102ZM104.575 95.4521V93.2603H112.046V95.4521H104.575Z" fill="white"/>
<path d="M117.918 104C116.965 104 116.101 103.759 115.325 103.277C114.563 102.795 113.955 102.144 113.501 101.326C113.062 100.493 112.842 99.5653 112.842 98.5425C112.842 97.505 113.062 96.5772 113.501 95.7589C113.955 94.926 114.563 94.2685 115.325 93.7863C116.101 93.2895 116.965 93.0411 117.918 93.0411C118.723 93.0411 119.434 93.2164 120.049 93.5671C120.679 93.9032 121.177 94.3708 121.543 94.9699C121.909 95.5689 122.092 96.2484 122.092 97.0082V100.033C122.092 100.793 121.909 101.472 121.543 102.071C121.191 102.67 120.701 103.145 120.071 103.496C119.441 103.832 118.723 104 117.918 104ZM118.313 101.721C118.914 101.721 119.434 101.589 119.873 101.326C120.327 101.048 120.679 100.668 120.928 100.186C121.177 99.7041 121.301 99.1489 121.301 98.5205C121.301 97.8922 121.177 97.337 120.928 96.8548C120.679 96.3726 120.327 96 119.873 95.737C119.434 95.4594 118.914 95.3205 118.313 95.3205C117.727 95.3205 117.207 95.4594 116.753 95.737C116.314 96 115.962 96.3726 115.698 96.8548C115.449 97.337 115.325 97.8922 115.325 98.5205C115.325 99.1489 115.449 99.7041 115.698 100.186C115.962 100.668 116.314 101.048 116.753 101.326C117.207 101.589 117.727 101.721 118.313 101.721ZM123.564 103.781H121.147V100.953L121.565 98.389L121.147 95.8466V88H123.564V103.781Z" fill="white"/>
<path d="M128.092 104C127.623 104 127.235 103.847 126.928 103.54C126.635 103.218 126.488 102.831 126.488 102.378C126.488 101.911 126.635 101.523 126.928 101.216C127.235 100.91 127.623 100.756 128.092 100.756C128.561 100.756 128.942 100.91 129.235 101.216C129.542 101.523 129.696 101.911 129.696 102.378C129.696 102.831 129.542 103.218 129.235 103.54C128.942 103.847 128.561 104 128.092 104Z" fill="white"/>
<defs>
<filter id="filter0_i_1_3299" x="46.915" y="22.5386" width="47.085" height="52.4614" filterUnits="userSpaceOnUse" color-interpolation-filters="sRGB">
<feFlood flood-opacity="0" result="BackgroundImageFix"/>
<feBlend mode="normal" in="SourceGraphic" in2="BackgroundImageFix" result="shape"/>
<feColorMatrix in="SourceAlpha" type="matrix" values="0 0 0 0 0 0 0 0 0 0 0 0 0 0 0 0 0 0 127 0" result="hardAlpha"/>
<feOffset dx="4" dy="-4"/>
<feGaussianBlur stdDeviation="12"/>
<feComposite in2="hardAlpha" operator="arithmetic" k2="-1" k3="1"/>
<feColorMatrix type="matrix" values="0 0 0 0 0 0 0 0 0 0 0 0 0 0 0 0 0 0 0.25 0"/>
<feBlend mode="normal" in2="shape" result="effect1_innerShadow_1_3299"/>
</filter>
</defs>
</svg>
